<svg width="44" height="44" viewBox="0 0 44 44" fill="none" xmlns="http://www.w3.org/2000/svg">
<g clip-path="url(#clip0)">
<path
      d="M22 0C17.6488 0 13.3953 1.29028 9.77746 3.70767C6.15958 6.12506 3.33979 9.56099 1.67466 13.581C0.00953218 17.6009 -0.426141 22.0244 0.422734 26.292C1.27161 30.5596 3.3669 34.4796 6.44366 37.5563C9.52041 40.6331 13.4404 42.7284 17.708 43.5773C21.9756 44.4261 26.3991 43.9905 30.419 42.3253C34.439 40.6602 37.8749 37.8404 40.2923 34.2225C42.7097 30.6047 44 26.3512 44 22C44 16.1652 41.6822 10.5694 37.5564 6.44365C33.4306 2.31785 27.8348 0 22 0ZM36.3688 14.6162L18.3013 32.67L7.63126 22C7.26659 21.6353 7.06171 21.1407 7.06171 20.625C7.06171 20.1093 7.26659 19.6147 7.63126 19.25C7.99593 18.8853 8.49053 18.6805 9.00626 18.6805C9.52198 18.6805 10.0166 18.8853 10.3813 19.25L18.3288 27.1975L33.6463 11.8937C33.8268 11.7132 34.0412 11.5699 34.2771 11.4722C34.513 11.3745 34.7659 11.3242 35.0213 11.3242C35.2766 11.3242 35.5295 11.3745 35.7654 11.4722C36.0013 11.5699 36.2157 11.7132 36.3963 11.8937C36.5768 12.0743 36.7201 12.2887 36.8178 12.5246C36.9155 12.7605 36.9658 13.0134 36.9658 13.2687C36.9658 13.5241 36.9155 13.777 36.8178 14.0129C36.7201 14.2488 36.5768 14.4632 36.3963 14.6437L36.3688 14.6162Z"
      fill="url(#paint0_linear)"
    />
</g>
<defs>
<linearGradient id="paint0_linear" x1="0" y1="0" x2="44.8825" y2="1.21377" gradientUnits="userSpaceOnUse">
<stop stop-color="#5AC276" />
<stop offset="0.494792" stop-color="#59C3B1" />
<stop offset="1" stop-color="#6FD8C4" />
</linearGradient>
<clipPath id="clip0">
<rect width="44" height="44" fill="white" />
</clipPath>
</defs>
</svg>
