<svg width="44" height="44" viewBox="0 0 44 44" fill="none" xmlns="http://www.w3.org/2000/svg">
<g clip-path="url(#clip0)">
<path
      d="M22 44C26.3512 44 30.6047 42.7097 34.2225 40.2923C37.8404 37.875 40.6602 34.439 42.3253 30.419C43.9905 26.3991 44.4261 21.9756 43.5773 17.708C42.7284 13.4404 40.6331 9.52042 37.5563 6.44366C34.4796 3.36691 30.5596 1.27161 26.292 0.422734C22.0244 -0.426141 17.6009 0.00953229 13.581 1.67466C9.56099 3.33979 6.12506 6.15958 3.70767 9.77746C1.29028 13.3953 0 17.6488 0 22C0 27.8348 2.31785 33.4306 6.44365 37.5564C10.5694 41.6822 16.1652 44 22 44Z"
      fill="url(#paint0_linear)"
    />
<path
      d="M24.4347 18.3902V15.4568H31.1667V11H12.8499V15.4605H19.5764V18.3938C14.1112 18.6432 10.0009 19.7212 10.0009 21.01C10.0009 22.2988 14.113 23.375 19.5764 23.628V33H24.4402V23.6262C29.898 23.375 33.9992 22.2988 33.9992 21.0082C33.9992 19.7175 29.8944 18.6413 24.4347 18.3902ZM24.4347 22.8342C24.2972 22.8342 23.5932 22.8837 22.0239 22.8837C20.768 22.8837 19.888 22.8525 19.5745 22.8342C14.7492 22.6197 11.1412 21.7837 11.1412 20.7845C11.1412 19.7853 14.7437 18.9512 19.5745 18.7348V22C19.8935 22.022 20.7937 22.077 22.0459 22.077C23.5455 22.077 24.2972 22.0165 24.4402 22V18.7293C29.2619 18.942 32.857 19.778 32.857 20.779C32.857 21.78 29.2564 22.6142 24.442 22.8342H24.4347Z"
      fill="#26A17B"
    />
</g>
<defs>
<linearGradient id="paint0_linear" x1="8.008" y1="1.276" x2="36.124" y2="42.9" gradientUnits="userSpaceOnUse">
<stop stop-color="#FECBD1" />
<stop offset="1" stop-color="#FD4E4E" />
</linearGradient>
<clipPath id="clip0">
<rect width="44" height="44" fill="white" />
</clipPath>
</defs>
</svg>
