<svg width="44" height="44" viewBox="0 0 44 44" fill="none" xmlns="http://www.w3.org/2000/svg">
<g clip-path="url(#clip0)">
<path
      d="M22 44C26.3512 44 30.6047 42.7097 34.2225 40.2923C37.8404 37.875 40.6602 34.439 42.3253 30.419C43.9905 26.3991 44.4261 21.9756 43.5773 17.708C42.7284 13.4404 40.6331 9.52042 37.5563 6.44366C34.4796 3.36691 30.5596 1.27161 26.292 0.422734C22.0244 -0.426141 17.6009 0.00953229 13.581 1.67466C9.56099 3.33979 6.12506 6.15958 3.70767 9.77746C1.29028 13.3953 0 17.6488 0 22C0 27.8348 2.31785 33.4306 6.44365 37.5564C10.5694 41.6822 16.1652 44 22 44Z"
      fill="url(#paint0_linear)"
    />
<path d="M21.8333 7.33325V17.7173L30.8331 21.5673L21.8333 7.33325Z" fill="#2B3439" />
<path d="M21.8332 7.33325L12.8334 21.5654L21.8332 17.7154V7.33325Z" fill="#677889" />
<path d="M21.8332 17.6824L12.8334 21.5324L21.8332 26.6657V17.6824Z" fill="#2B3439" />
<path d="M21.8333 17.6824V26.6657L30.8331 21.5324L21.8333 17.6824Z" fill="#060506" />
<path d="M21.8332 35.332V28.3323L12.8334 23.199L21.8332 35.332Z" fill="#677889" />
<path d="M21.8333 28.3323V35.332L30.8331 23.199L21.8333 28.3323Z" fill="#2B3439" />
</g>
<defs>
<linearGradient id="paint0_linear" x1="8.008" y1="1.276" x2="36.124" y2="42.9" gradientUnits="userSpaceOnUse">
<stop stop-color="#FECBD1" />
<stop offset="1" stop-color="#FD4E4E" />
</linearGradient>
<clipPath id="clip0">
<rect width="44" height="44" fill="white" />
</clipPath>
</defs>
</svg>
